<?xml version="1.0" encoding="UTF-8"?>
<svg width="24px" height="24px" viewBox="0 0 24 24" version="1.1" xmlns="http://www.w3.org/2000/svg" xmlns:xlink="http://www.w3.org/1999/xlink">
    <title>icon/flamethrower-circle</title>
    <defs>
        <path d="M11.9720652,3.90798505e-14 C18.5840542,3.90798505e-14 23.9441304,5.36007616 23.9441304,11.9720652 C23.9441304,18.5840542 18.5840542,23.9441304 11.9720652,23.9441304 C5.36007616,23.9441304 3.90798505e-14,18.5840542 3.90798505e-14,11.9720652 C3.90798505e-14,5.36007616 5.36007616,3.90798505e-14 11.9720652,3.90798505e-14 Z M11.7086798,4.26042344 C11.4204578,4.25810008 11.1437419,4.37339837 10.9424676,4.57971401 L10.4350097,4.57914469 C9.65352449,4.57715208 8.29265048,4.56818535 7.23112737,4.52783505 C7.11115251,4.49584255 6.98351143,4.53631411 6.90389091,4.63159296 C6.80811369,4.82188369 6.80811369,5.04629057 6.90389091,5.23658131 C6.93776255,5.27032425 6.98378544,5.28902104 7.03159296,5.28846026 C8.01931292,5.09363278 9.02688381,5.01833293 10.0325906,5.06418356 C10.0964416,5.06418356 10.1762554,5.15916195 10.0325906,5.23658131 C9.29391332,5.57397223 8.53407965,5.86297563 7.75789823,6.10176256 C7.66051377,6.13537209 7.58399196,6.21189389 7.55038243,6.30927835 C7.53445666,6.4354155 7.53445666,6.56305474 7.55038243,6.68919189 C7.55176378,6.74230778 7.58250827,6.79026919 7.63019621,6.81370136 C7.67692284,6.83977905 7.7333235,6.84185697 7.78184236,6.81928833 C8.623788,6.3307739 9.51123506,5.92527474 10.4316595,5.60851346 C10.542029,5.58377087 10.6565077,5.58377087 10.7668773,5.60851346 L10.7668773,7.4242767 C9.48216386,7.45995377 8.44364644,8.48278888 8.388427,9.76681078 L8.388427,19.1281676 C8.388427,19.5862986 8.49218491,19.750715 8.79547722,19.750715 L14.6937147,19.750715 C14.997007,19.750715 15.1007649,19.5862986 15.1007649,19.1281676 L15.1007649,9.83145993 C15.0378923,8.52268455 13.9607594,7.4925665 12.6504822,7.4881277 L12.6504822,5.75936149 L13.1213834,5.75936149 C13.1659041,5.76174668 13.2095268,5.74621033 13.2425166,5.71621957 C13.2755065,5.68622881 13.2951177,5.64427978 13.2969737,5.59973396 C13.3148641,5.55213915 13.3581358,5.5187581 13.408713,5.51353509 C13.910616,5.50681274 14.4029045,5.65143987 14.8214167,5.92856668 C15.5810267,6.43736631 16.0198224,7.30587921 15.9787163,8.21922183 L15.9068839,8.21922183 C15.8833397,8.21683685 15.8599511,8.22502287 15.8430329,8.24156968 C15.8219439,8.25579408 15.8098335,8.28001484 15.8111074,8.30542067 L15.8111074,8.52171599 C15.5246056,8.66023671 15.3397127,8.94743692 15.3322248,9.26558032 L15.3322248,11.5562355 C15.331627,11.5798184 15.340212,11.6027116 15.3561689,11.6200865 C15.3730871,11.6366333 15.3964757,11.6448193 15.42002,11.6424343 L17.1280346,11.6424343 C17.1495665,11.64283 17.1701154,11.6334363 17.1839042,11.6168939 C17.2044799,11.6037023 17.2166051,11.5806645 17.2158648,11.5562355 L17.2158648,9.24802128 C17.1865451,8.92770238 16.9844397,8.64904203 16.6890589,8.52171599 L16.6890589,8.35330895 C16.6867736,8.32855392 16.6754002,8.30552267 16.6571334,8.28865979 C16.6402152,8.27211299 16.6168266,8.26392696 16.5932823,8.26631194 L16.4975058,8.26631194 C16.5380784,7.2083407 16.0430091,6.20109969 15.1805786,5.58696374 C14.6672935,5.19899736 14.0440521,4.9840769 13.4007316,4.97319588 C13.3542107,4.96401427 13.312081,4.93957902 13.281011,4.90375791 C13.2789439,4.85928742 13.2592698,4.81746626 13.2263288,4.78751987 C13.1933878,4.75757348 13.1498864,4.74196242 13.1054207,4.74413036 L12.5706685,4.74413036 C12.3867388,4.44424825 12.0604735,4.2611772 11.7086798,4.26042344 Z" id="path-1"></path>
    </defs>
    <g id="icon/flamethrower-circle" stroke="none" stroke-width="1" fill="none" fill-rule="evenodd">
        <mask id="mask-2" fill="white">
            <use xlink:href="#path-1"></use>
        </mask>
        <use id="形状结合" fill="#555555" fill-rule="nonzero" xlink:href="#path-1"></use>
    </g>
</svg>