<?xml version="1.0" encoding="UTF-8"?>
<svg width="24px" height="24px" viewBox="0 0 24 24" version="1.1" xmlns="http://www.w3.org/2000/svg" xmlns:xlink="http://www.w3.org/1999/xlink">
    <title>icon/flamethrower</title>
    <defs>
        <path d="M15.5959253,16.1928555 L15.5959253,20.9246029 C15.5959253,21.5698411 15.1544991,22 14.4923599,22 L7.20882853,22 C6.54668931,22 6.10526316,21.5698411 6.10526316,20.9246029 L6.10526316,16.1928555 L15.5959253,16.1928555 Z M9.41072307,5.15789474 L9.41072307,6.30432516 L8.97786522,6.30432516 C6.92179045,6.30432516 5.29857353,7.86763938 5.19035907,9.74361647 L5.19035907,15.6842105 L4,15.6842105 L4,9.84783742 C4,7.24231371 6.16428923,5.15789474 8.86965075,5.15789474 L9.41072307,5.15789474 Z M15.5959253,13.719442 L15.5959253,14.9023789 L6.10526316,14.9023789 L6.10526316,13.719442 L15.5959253,13.719442 Z M11.4141876,2 C11.9633867,2 12.4210526,2.51599586 12.4210526,3.13519093 L12.421,6.733 L12.4776891,6.73430795 C14.2585248,6.82628706 15.5959253,8.19041746 15.5959253,9.95555206 L15.5959253,12.3214258 L6.10526316,12.3214258 L6.10526316,9.95555206 C6.10526316,8.12737692 7.53989813,6.72936066 9.41595924,6.72936066 L10.315,6.729 L10.3157895,3.13519093 C10.3157895,2.51599588 10.7734554,2 11.4141876,2 Z M19.7894737,3.9333281 L19.7894737,5.86904294 C19.7894737,6.51428122 19.3480475,6.94444008 18.6859083,6.94444008 L18.4651952,6.94444008 L15.18,6.304 L13.4146581,6.30432516 L13.4146581,5.15789474 L14.271,5.157 L14.2716468,4.6861061 C14.1612903,4.25594724 14.6027165,3.8257884 15.1544991,3.71824868 L18.4651952,3.0730104 C19.0169779,2.96547068 19.6791171,3.28808982 19.7894737,3.9333281 Z" id="path-1"></path>
    </defs>
    <g id="icon/flamethrower" stroke="none" stroke-width="1" fill="none" fill-rule="evenodd">
        <mask id="mask-2" fill="white">
            <use xlink:href="#path-1"></use>
        </mask>
        <use id="形状结合" fill="#ffffff" fill-rule="nonzero" xlink:href="#path-1"></use>
    </g>
</svg>
