<?xml version="1.0" encoding="UTF-8"?>
<svg width="24px" height="24px" viewBox="0 0 24 24" version="1.1" xmlns="http://www.w3.org/2000/svg" xmlns:xlink="http://www.w3.org/1999/xlink">
    <title>icon/img-o</title>
    <defs>
        <path d="M4.5,2 C3.119375,2 2,3.119375 2,4.5 L2,19.5 C2,20.880625 3.119375,22 4.5,22 L19.5,22 C20.880625,22 22,20.880625 22,19.5 L22,4.5 C22,3.119375 20.880625,2 19.5,2 L4.5,2 Z M7,4.5 C8.380625,4.5 9.5,5.619375 9.5,7 C9.5,8.380625 8.380625,9.5 7,9.5 C5.619375,9.5 4.5,8.380625 4.5,7 C4.5,5.619375 5.619375,4.5 7,4.5 L7,4.5 Z M7,8.25 C7.69,8.25 8.25,7.69 8.25,7 C8.25,6.31 7.69,5.75 7,5.75 C6.31,5.75 5.75,6.31 5.75,7 C5.75,7.69 6.31,8.25 7,8.25 L7,8.25 Z M3.25,19.5 L3.25,18.913125 L7.28162893,15.3021657 C7.7974607,14.840157 8.6087799,14.8587407 9.10278186,15.3526936 L14.500625,20.75 L4.5,20.75 C3.81,20.75 3.25,20.19 3.25,19.5 Z M19.5,20.75 L16.27,20.75 L11.665,16.084375 L16.1190332,11.6303418 C16.6055778,11.1437972 17.4013157,11.1506907 17.8886976,11.6380727 L20.75,14.499375 L20.75,19.5 C20.75,20.19 20.19,20.75 19.5,20.75 Z M3.25,17.3941345 L3.25,4.50519758 C3.25,3.81197109 3.81243596,3.25 4.50855684,3.25 L19.4914431,3.25 C20.1865249,3.25 20.75,3.81828846 20.75,4.49738102 L20.75,12.7914734 L17.8564215,10.1439994 C17.3460162,9.6770051 16.5348259,9.69233242 16.0385007,10.1842564 L10.8751221,15.3018494 L9.16353412,13.8280995 C8.64240158,13.3793822 7.79620588,13.3889343 7.28513244,13.8391891 L3.25,17.3941345 Z" id="path-1"></path>
    </defs>
    <g id="icon/img-o" stroke="none" stroke-width="1" fill="none" fill-rule="evenodd">
        <mask id="mask-2" fill="white">
            <use xlink:href="#path-1"></use>
        </mask>
        <use id="形状" fill="rgba(255, 255, 255, .8)" fill-rule="nonzero" xlink:href="#path-1"></use>
    </g>
</svg>