<?xml version="1.0" encoding="UTF-8"?>
<svg width="24px" height="24px" viewBox="0 0 24 24" version="1.1" xmlns="http://www.w3.org/2000/svg" xmlns:xlink="http://www.w3.org/1999/xlink">
    <title>icon/search-plus-circle</title>
    <g id="icon/search-plus-circle" stroke="none" stroke-width="1" fill="none" fill-rule="evenodd">
        <circle id="椭圆形" fill="#FA6400" cx="12" cy="12" r="12"></circle>
        <path d="M11.2222038,5 C12.8128131,5 14.4049847,5.6062609 15.6205977,6.82190774 C17.808076,9.00944706 18.0190114,12.4173208 16.2674663,14.8486145 L16.2674663,14.8486145 L18.6893172,17.270533 C19.0940007,17.6752278 19.1049381,18.3205519 18.7127545,18.7127465 C18.3205709,19.104941 17.6752648,19.0940033 17.2705813,18.6893085 L17.2705813,18.6893085 L14.8487303,16.26739 C13.7674911,17.045529 12.4956287,17.4424111 11.2206414,17.4424111 C9.62846967,17.4424111 8.03629798,16.8345877 6.82224753,15.6205034 C4.39258416,13.1907722 4.39258416,9.25163891 6.82224753,6.82190774 C8.03786046,5.6062609 9.63159464,5 11.2222038,5 Z M11.2206414,7.00472353 C10.09409,7.00472353 9.03628805,7.44223139 8.23942096,8.23912072 C6.59568728,9.88290026 6.59568728,12.5579483 8.23942096,14.2017279 C9.03628805,14.9970547 10.09409,15.4361251 11.2206414,15.4361251 C12.3471927,15.4361251 13.4049947,14.9986172 14.2018618,14.2017279 C15.8455954,12.5579483 15.8455954,9.88290026 14.2018618,8.23912072 C13.4049947,7.44379392 12.3471927,7.00472353 11.2206414,7.00472353 Z M11.3753846,8.59041813 C11.7406769,8.59041813 12.0358974,8.86611813 12.0358974,9.204425 L12.035,10.801 L13.6331897,10.8011875 C13.9407329,10.8011875 14.1965362,11.0456529 14.2405042,11.3641268 L14.2471795,11.4617188 C14.2471795,11.8270213 13.9720615,12.12225 13.6331897,12.12225 L13.6331897,12.12225 L12.035,12.122 L12.0358974,13.7207356 C12.0358974,14.0601913 11.7406769,14.3341681 11.3753846,14.3341681 C11.0100923,14.3341681 10.7148718,14.0596169 10.7148718,13.7207356 L10.714,12.122 L9.11700513,12.12225 C8.80841772,12.12225 8.55394346,11.8782593 8.51022573,11.5594402 L8.50358974,11.4617188 C8.50358974,11.0964163 8.77813333,10.8011875 9.11700513,10.8011875 L9.11700513,10.8011875 L10.714,10.801 L10.7148718,9.204425 C10.7148718,8.86554375 11.0106667,8.59041813 11.3753846,8.59041813 Z" id="形状结合" fill="#232B39" fill-rule="nonzero"></path>
    </g>
</svg>