<?xml version="1.0" encoding="UTF-8"?>
<svg width="24px" height="24px" viewBox="0 0 24 24" version="1.1" xmlns="http://www.w3.org/2000/svg" xmlns:xlink="http://www.w3.org/1999/xlink">
    <title>icon/download-circle</title>
    <g id="icon/download-circle" stroke="none" stroke-width="1" fill="none" fill-rule="evenodd">
        <circle id="椭圆形" fill="#FA6400" cx="12" cy="12" r="12"></circle>
        <path d="M16.578721,13.7134505 L16.578721,15.6122814 C16.578721,16.1448035 16.1658624,16.5766618 15.6565371,16.5766618 L8.27256412,16.5766618 C7.76323889,16.5766618 7.35038022,16.144788 7.35038022,15.6122814 L7.35038022,13.7134505 L6,13.7134505 L6,16.0714402 C6,17.1363298 6.9149849,18 7.9336202,18 L16.1555867,18 C17.1742372,18 18,17.1363452 18,16.0714402 L18,13.7134505 L16.5786756,13.7134505 L16.578721,13.7134505 Z M15.1770991,10.308622 L13.3768801,10.3237339 L13.3624973,6 L10.5796531,6 L10.5796531,10.3237339 L8.77934317,10.3237339 L11.9782136,14.6621776 L15.1770991,10.3086374 L15.1770991,10.308622 Z" id="形状" fill="#232B39" fill-rule="nonzero"></path>
    </g>
</svg>