<?xml version="1.0" encoding="UTF-8"?>
<svg width="24px" height="24px" viewBox="0 0 24 24" version="1.1" xmlns="http://www.w3.org/2000/svg" xmlns:xlink="http://www.w3.org/1999/xlink">
    <title>icon/search</title>
    <defs>
        <path d="M11.0925365,2 C16.1142057,2 20.185073,6.07069832 20.185073,11.0921592 C20.185073,13.2756437 19.4153632,15.2793603 18.1324652,16.8467981 L21.7336922,20.4478741 C22.059178,20.7733477 22.0863109,21.2842018 21.8150845,21.6405824 L21.7337043,21.733704 L21.7337043,21.733704 C21.3786265,22.0887818 20.8029336,22.0887882 20.4478479,21.7337183 L16.8464209,18.1326086 C15.2790648,19.4149657 13.2756504,20.1843184 11.0925365,20.1843184 C6.07086725,20.1843184 2,16.11362 2,11.0921592 C2,6.07069832 6.07086725,2 11.0925365,2 Z M11.0925365,3.81843184 C7.0752011,3.81843184 3.8185073,7.07499049 3.8185073,11.0921592 C3.8185073,15.1093279 7.0752011,18.3658865 11.0925365,18.3658865 C15.1098719,18.3658865 18.3665657,15.1093279 18.3665657,11.0921592 C18.3665657,7.07499049 15.1098719,3.81843184 11.0925365,3.81843184 Z" id="path-1"></path>
    </defs>
    <g id="icon/search" stroke="none" stroke-width="1" fill="none" fill-rule="evenodd">
        <mask id="mask-2" fill="white">
            <use xlink:href="#path-1"></use>
        </mask>
        <use id="Mask" fill="#555555" xlink:href="#path-1"></use>
    </g>
</svg>