<?xml version="1.0" encoding="UTF-8"?>
<svg width="24px" height="24px" viewBox="0 0 24 24" version="1.1" xmlns="http://www.w3.org/2000/svg" xmlns:xlink="http://www.w3.org/1999/xlink">
    <title>icon/skeleton</title>
    <defs>
        <path d="M17.3001027,16.8917516 C17.6310916,16.1764159 18.475066,15.8680068 19.1813133,16.1989158 C19.8920035,16.5341641 20.198557,17.3822492 19.8653466,18.0998348 C19.6768517,18.5104433 19.3049637,18.8042357 18.8658741,18.8894202 C19.0724646,19.2719182 19.1057856,19.7442551 18.9080808,20.1670923 C18.5770918,20.882428 17.7329588,21.1908372 17.0268701,20.8599281 C16.3206228,20.5293405 16.0096264,19.6765948 16.3426781,18.9590091 C16.3848848,18.8712595 16.4293128,18.7902599 16.489132,18.7137603 L11.998408,16.6060031 L7.50958806,18.718421 C7.56512312,18.7949206 7.61177258,18.8781702 7.65620063,18.9636698 C7.98718962,19.6790055 7.67841465,20.5295012 6.9721673,20.8645888 C6.26131847,21.1998371 5.41972423,20.8915887 5.09095665,20.171753 C4.89325181,19.7444159 4.92657285,19.2764182 5.13316329,18.8939201 C4.7110968,18.8061706 4.33139563,18.529422 4.1336908,18.1043348 C3.80270181,17.3889991 4.10703397,16.5385034 4.81772413,16.2034158 C5.52841429,15.8681675 6.37032587,16.1809159 6.69893478,16.8962516 C6.74114143,16.9840012 6.76779826,17.0762507 6.79223369,17.1662502 L9.98613461,15.6656685 L6.79445509,14.1628368 C6.77224107,14.2505863 6.74336283,14.3473358 6.70115618,14.4328354 C6.3701672,15.1481711 5.52619288,15.4564196 4.81994553,15.1256712 C4.1113181,14.7928336 3.80270181,13.9400879 4.1359122,13.2225022 C4.32434404,12.8118429 4.69626187,12.518027 5.1353847,12.4329169 C4.92879426,12.0504188 4.89547322,11.5780819 5.09317805,11.1552447 C5.42416703,10.439909 6.26814135,10.1314999 6.9743887,10.4624089 C7.31444054,10.6220835 7.57772771,10.9123277 7.70607921,11.2690147 C7.83443071,11.6257018 7.81728204,12.0194729 7.65842203,12.363328 C7.61621538,12.4510775 7.57178733,12.5343271 7.51196813,12.6108267 L12.0006294,14.7187447 L16.487228,12.6085767 C16.4316929,12.5320771 16.3850435,12.4488275 16.3406154,12.361078 C16.0097851,11.6457423 16.3139586,10.7952465 17.0248074,10.4599982 C17.7354976,10.1247499 18.5772505,10.4329984 18.9060181,11.152834 C19.1037229,11.5803319 19.0704019,12.0481688 18.8638114,12.4306669 C19.2858779,12.5184165 19.6655791,12.7950044 19.8632839,13.2202522 C20.1942729,13.9355879 19.8899407,14.7860836 19.1792506,15.1213319 C18.4684018,15.4565803 17.6266488,15.1483318 17.2980399,14.4284961 C17.2558333,14.3429966 17.2291764,14.248497 17.204741,14.1584975 L14.0108401,15.6611685 L17.204741,17.1617503 C17.2290178,17.07384 17.2601174,16.9815905 17.3001027,16.8917516 L17.3001027,16.8917516 Z M15.2967149,10.1494998 L15.2967149,11.4856716 C15.2967149,12.1920074 14.7326373,12.7590045 14.0351169,12.7590045 C13.6835398,12.7593738 13.347791,12.6109831 13.1089506,12.3496673 C12.9313971,12.8332542 12.4736295,13.1865024 11.9295445,13.1865024 C11.4018806,13.1862096 10.9306708,12.8518676 10.7501384,12.3496673 C10.5121919,12.6122546 10.1758616,12.7609023 9.82397222,12.7590045 C9.1264518,12.7590045 8.56237422,12.1920074 8.56237422,11.4856716 L8.56237422,10.1493391 C7.78282058,9.3888429 7.30093284,8.36975873 7.30093284,7.2449251 C7.29855481,4.90091902 9.37080609,3 11.9273231,3 C14.4838402,3 16.5561597,4.90091902 16.5561597,7.24283582 C16.5627557,8.36766946 16.0807113,9.38900361 15.2967149,10.1494998 Z M9.94614936,5.23391735 C9.16199425,5.23391735 8.52905318,5.87500341 8.52905318,6.66474944 C8.52905318,7.45433476 9.16437432,8.09558154 9.94614936,8.09558154 C10.7301458,8.09558154 11.3630869,7.45449547 11.3630869,6.66474944 C11.3630869,5.87500341 10.7301458,5.23391735 9.94614936,5.23391735 Z M11.6763046,9.1754154 L11.0478064,10.4397483 C10.9100794,10.7230862 11.0522492,10.9503351 11.3588027,10.9503351 L12.4915594,10.9503351 C12.8023971,10.9503351 12.9445669,10.7209969 12.8023971,10.4397483 L12.1783416,9.1754154 C12.0472789,8.88966683 11.8184744,8.88966683 11.6763046,9.1754154 L11.6763046,9.1754154 Z M13.9151611,5.23391735 C13.131006,5.23391735 12.4980649,5.87500341 12.4980649,6.66474944 C12.4980649,7.45433476 13.1333861,8.09558154 13.9151611,8.09558154 C14.6991576,8.09558154 15.3322573,7.45449547 15.3322573,6.66474944 C15.3322573,5.87500341 14.6991576,5.23391735 13.9151611,5.23391735 Z" id="path-1"></path>
    </defs>
    <g id="icon/skeleton" stroke="none" stroke-width="1" fill="none" fill-rule="evenodd">
        <mask id="mask-2" fill="white">
            <use xlink:href="#path-1"></use>
        </mask>
        <use id="形状" fill="#555555" fill-rule="nonzero" xlink:href="#path-1"></use>
    </g>
</svg>