<?xml version="1.0" encoding="UTF-8"?>
<svg width="24px" height="24px" viewBox="0 0 24 24" version="1.1" xmlns="http://www.w3.org/2000/svg" xmlns:xlink="http://www.w3.org/1999/xlink">
    <title>icon/time-circle</title>
    <defs>
        <path d="M12.0001708,-3.90798505e-14 C7.14521424,-3.90798505e-14 2.76861588,2.92543143 0.912227055,7.41145687 C-0.944161769,11.8974823 0.0854763947,17.0600961 3.52077578,20.4907406 C6.95607517,23.9213852 12.1200804,24.9440222 16.6035845,23.0815524 C21.0870887,21.2190825 24.0065786,16.8385215 24.0000112,11.9835693 C23.9910286,5.36259742 18.6211488,-3.90798505e-14 12.0001708,-3.90798505e-14 Z M17.1383091,15.5770141 C17.4437949,15.8493941 17.5767183,16.2665136 17.485152,16.6654222 C17.3935858,17.0643307 17.0920603,17.3817259 16.6983686,17.4936153 C16.3046769,17.6055046 15.8812934,17.4941326 15.5936157,17.2030073 L12.0001708,13.5445227 L8.40672604,17.1217076 C8.11627034,17.4121633 7.69292194,17.5255992 7.29615207,17.419285 C6.89938221,17.3129709 6.58946967,17.0030583 6.48315551,16.6062885 C6.37684134,16.2095186 6.49027721,15.7861702 6.7807329,15.4957145 L10.3579178,11.9022697 L6.7807329,8.3250848 C6.33172732,7.87607919 6.33172733,7.14809728 6.78073293,6.69909169 C7.22973853,6.25008609 7.95772044,6.25008609 8.40672604,6.69909169 L12.0001708,10.4388759 L15.5936157,6.84543105 C16.0458035,6.4422472 16.7364066,6.47087616 17.1536723,6.91010321 C17.570938,7.34933026 17.5641371,8.04049306 17.1383091,8.47142419 L13.5611242,12.0486091 L17.1383091,15.5770141 Z" id="path-1"></path>
    </defs>
    <g id="icon/time-circle" stroke="none" stroke-width="1" fill="none" fill-rule="evenodd">
        <mask id="mask-2" fill="white">
            <use xlink:href="#path-1"></use>
        </mask>
        <use id="形状" fill="#8c91a0" fill-rule="nonzero" opacity="0.8" xlink:href="#path-1"></use>
    </g>
</svg>