<?xml version="1.0" encoding="UTF-8"?>
<svg width="24px" height="24px" viewBox="0 0 24 24" version="1.1" xmlns="http://www.w3.org/2000/svg" xmlns:xlink="http://www.w3.org/1999/xlink">
    <title>icon/user-circle</title>
    <defs>
        <path d="M12,0 C18.627417,0 24,5.372583 24,12 C24,18.627417 18.627417,24 12,24 C5.372583,24 0,18.627417 0,12 C0,5.372583 5.372583,0 12,0 Z M12.0000341,12.9139737 C11.0930295,12.9141229 10.1868568,12.9688884 9.28643576,13.077973 C7.98153899,13.2358301 7,14.3432179 7,15.6576011 C7,16.8652448 7.97901382,17.8442587 9.18665757,17.8442587 L9.18665757,17.8442587 L14.8133424,17.8442587 C16.0209862,17.8442587 17,16.8652448 17,15.6576011 C17,14.3432179 16.0183928,13.2358301 14.713496,13.077973 C13.8089405,12.9687084 12.9045214,12.9139737 12.0000341,12.9139737 Z M12.0000341,6 C10.2797816,5.99993175 8.88527555,7.39450606 8.88527555,9.11469033 C8.88527555,10.8349428 10.2798499,12.2294489 12.0000341,12.2294489 C13.7202184,12.2294489 15.1147244,10.8350111 15.1147244,9.11475857 C15.1147244,7.3945743 13.7202866,6 12.0000341,6 Z" id="path-1"></path>
    </defs>
    <g id="icon/user-circle" stroke="none" stroke-width="1" fill="none" fill-rule="evenodd">
        <mask id="mask-2" fill="white">
            <use xlink:href="#path-1"></use>
        </mask>
        <use id="形状结合" fill="#fa6400" xlink:href="#path-1"></use>
    </g>
</svg>